<svg width="28" height="29" viewBox="0 0 28 29" fill="none" xmlns="http://www.w3.org/2000/svg">
<path d="M3.5 7.25H5.83333H24.5" stroke="#F1F1F1" stroke-width="2" stroke-linecap="round" stroke-linejoin="round"/>
<path d="M9.33301 7.25002V4.83335C9.33301 4.19241 9.57884 3.57773 10.0164 3.12451C10.454 2.6713 11.0475 2.41669 11.6663 2.41669H16.333C16.9518 2.41669 17.5453 2.6713 17.9829 3.12451C18.4205 3.57773 18.6663 4.19241 18.6663 4.83335V7.25002M22.1663 7.25002V24.1667C22.1663 24.8076 21.9205 25.4223 21.4829 25.8755C21.0453 26.3287 20.4518 26.5834 19.833 26.5834H8.16634C7.5475 26.5834 6.95401 26.3287 6.51643 25.8755C6.07884 25.4223 5.83301 24.8076 5.83301 24.1667V7.25002H22.1663Z" stroke="#F1F1F1" stroke-width="2" stroke-linecap="round" stroke-linejoin="round"/>
<path d="M11.667 13.2917V20.5417" stroke="#F1F1F1" stroke-width="2" stroke-linecap="round" stroke-linejoin="round"/>
<path d="M16.333 13.2917V20.5417" stroke="#F1F1F1" stroke-width="2" stroke-linecap="round" stroke-linejoin="round"/>
</svg>
