<svg width="21" height="27" viewBox="0 0 21 27" fill="none" xmlns="http://www.w3.org/2000/svg">
<path d="M9.625 4.50002H3.5C3.03587 4.50002 2.59075 4.73707 2.26256 5.15902C1.93437 5.58098 1.75 6.15328 1.75 6.75002V22.5C1.75 23.0968 1.93437 23.669 2.26256 24.091C2.59075 24.513 3.03587 24.75 3.5 24.75H15.75C16.2141 24.75 16.6592 24.513 16.9874 24.091C17.3156 23.669 17.5 23.0968 17.5 22.5V14.625" stroke="#F1F1F1" stroke-width="2" stroke-linecap="round" stroke-linejoin="round"/>
<path d="M16.1875 2.8125C16.5356 2.36494 17.0077 2.11351 17.5 2.11351C17.9923 2.11351 18.4644 2.36494 18.8125 2.8125C19.1606 3.26005 19.3562 3.86706 19.3562 4.5C19.3562 5.13293 19.1606 5.73994 18.8125 6.18749L10.5 16.875L7 18L7.875 13.5L16.1875 2.8125Z" stroke="#F1F1F1" stroke-width="2" stroke-linecap="round" stroke-linejoin="round"/>
</svg>
